<svg xmlns="http://www.w3.org/2000/svg" fill="none" viewBox="0 0 1024 1024">
  <rect width="1024" height="1024" fill="#fff" rx="250"/>
  <path fill="url(#a)" d="M546.91 715.1c-28.98 0-53.19-6.75-72.63-20.25-19.44-13.5-34.1-31.86-44-55.08-9.73-23.22-14.59-49.41-14.59-78.57 0-29.16 4.86-55.35 14.58-78.57 9.72-23.22 24.03-41.58 42.93-55.08s42.21-20.25 69.93-20.25c27.9 0 52.2 6.66 72.9 19.98 20.7 13.32 36.72 31.59 48.06 54.81 11.52 23.04 17.28 49.41 17.28 79.11 0 29.16-5.67 55.35-17 78.57-11.17 23.22-26.83 41.58-46.99 55.08-20.16 13.5-43.65 20.25-70.47 20.25ZM403.27 707V318.2h73.98v189h-9.18V707h-64.8Zm131.76-57.24c15.84 0 28.8-3.96 38.88-11.88 10.08-7.92 17.55-18.54 22.41-31.86 4.86-13.5 7.3-28.44 7.3-44.82 0-16.2-2.53-30.96-7.57-44.28-5.04-13.5-12.87-24.21-23.49-32.13-10.44-8.1-23.85-12.15-40.23-12.15-15.3 0-27.72 3.69-37.26 11.07-9.36 7.38-16.2 17.73-20.52 31.05s-6.48 28.8-6.48 46.44c0 17.64 2.16 33.12 6.48 46.44s11.34 23.67 21.06 31.05c9.9 7.38 23.04 11.07 39.42 11.07Z"/>
  <path fill="url(#b)" d="m410.81 882 28.16-92.16h25.98L493.11 882H475.2l-25.08-81.28h3.32L428.73 882h-17.92Zm16.9-19.2v-16.26h48.64v16.26H427.7Zm76.88 19.2v-92.16h38.9c.9 0 2.1.04 3.6.13a28 28 0 0 1 4.09.38c5.5.86 10 2.67 13.5 5.44a24.5 24.5 0 0 1 7.8 10.5 37.61 37.61 0 0 1 2.5 14.01c0 5.17-.85 9.86-2.56 14.08a24.56 24.56 0 0 1-7.8 10.44c-3.5 2.77-7.98 4.58-13.44 5.44a69.34 69.34 0 0 1-7.68.51H522V882h-17.42Zm17.4-47.49h20.74c.9 0 1.88-.04 2.94-.13 1.07-.08 2.05-.25 2.95-.5a10.8 10.8 0 0 0 5.44-3.2 12.77 12.77 0 0 0 2.62-5.06c.51-1.88.77-3.65.77-5.32 0-1.66-.26-3.4-.77-5.24a12.23 12.23 0 0 0-2.62-5.06 10.4 10.4 0 0 0-5.44-3.26 15.2 15.2 0 0 0-2.95-.52 37.3 37.3 0 0 0-2.94-.12h-20.74v28.41ZM589.12 882v-92.16h17.4V882h-17.4Z"/>
  <defs>
    <linearGradient id="a" x1="534.5" x2="534.5" y1="231" y2="769" gradientUnits="userSpaceOnUse">
      <stop offset=".16" stop-color="#357DF2"/>
      <stop offset=".51" stop-color="#2F5BD1"/>
      <stop offset="1" stop-color="#262BA3"/>
    </linearGradient>
    <linearGradient id="b" x1="512.5" x2="512.5" y1="769" y2="897" gradientUnits="userSpaceOnUse">
      <stop offset=".16" stop-color="#357DF2"/>
      <stop offset=".51" stop-color="#2F5BD1"/>
      <stop offset="1" stop-color="#262BA3"/>
    </linearGradient>
  </defs>
</svg>
