<svg width="24" height="24" viewBox="0 0 24 24" fill="none" xmlns="http://www.w3.org/2000/svg">
<rect width="24" height="24" rx="3" fill="#3B82F6"/>
<path d="M6.63977 19H9.03977V18.38C9.41977 18.6733 9.8531 18.9 10.3398 19.06C10.8264 19.22 11.3664 19.3 11.9598 19.3C12.9531 19.3 13.8231 19.05 14.5698 18.55C15.3164 18.05 15.8964 17.37 16.3098 16.51C16.7298 15.65 16.9398 14.68 16.9398 13.6C16.9398 12.5 16.7264 11.5233 16.2998 10.67C15.8798 9.81 15.2864 9.13333 14.5198 8.64C13.7531 8.14667 12.8531 7.9 11.8198 7.9C11.3464 7.9 10.9031 7.95667 10.4898 8.07C10.0831 8.18333 9.7131 8.34667 9.37977 8.56V4.6H6.63977V19ZM11.5198 16.88C10.6131 16.88 9.9731 16.58 9.59977 15.98C9.22643 15.3733 9.03977 14.58 9.03977 13.6C9.03977 12.62 9.2231 11.83 9.58977 11.23C9.9631 10.6233 10.5731 10.32 11.4198 10.32C12.0264 10.32 12.5231 10.47 12.9098 10.77C13.3031 11.0633 13.5931 11.46 13.7798 11.96C13.9664 12.4533 14.0598 13 14.0598 13.6C14.0598 14.2067 13.9698 14.76 13.7898 15.26C13.6098 15.7533 13.3331 16.1467 12.9598 16.44C12.5864 16.7333 12.1064 16.88 11.5198 16.88Z" fill="black"/>
</svg>
