<svg width="24" height="24" viewBox="0 0 24 24" fill="none" xmlns="http://www.w3.org/2000/svg">
<rect width="24" height="24" rx="3" fill="#3B82F6"/>
<path d="M6.63977 19H9.03977V18.38C9.41977 18.6733 9.8531 18.9 10.3398 19.06C10.8264 19.22 11.3664 19.3 11.9598 19.3C12.9531 19.3 13.8231 19.05 14.5698 18.55C15.3164 18.05 15.8964 17.37 16.3098 16.51C16.7298 15.65 16.9398 14.68 16.9398 13.6C16.9398 12.5 16.7264 11.5233 16.2998 10.67C15.8798 9.81 15.2864 9.13333 14.5198 8.64C13.7531 8.14667 12.8531 7.9 11.8198 7.9C11.3464 7.9 10.9031 7.95667 10.4898 8.07C10.0831 8.18333 9.7131 8.34667 9.37977 8.56V4.6H6.63977V19ZM11.5198 16.88C10.6131 16.88 9.9731 16.58 9.59977 15.98C9.22643 15.3733 9.03977 14.58 9.03977 13.6C9.03977 12.62 9.2231 11.83 9.58977 11.23C9.9631 10.6233 10.5731 10.32 11.4198 10.32C12.0264 10.32 12.5231 10.47 12.9098 10.77C13.3031 11.0633 13.5931 11.46 13.7798 11.96C13.9664 12.4533 14.0598 13 14.0598 13.6C14.0598 14.2067 13.9698 14.76 13.7898 15.26C13.6098 15.7533 13.3331 16.1467 12.9598 16.44C12.5864 16.7333 12.1064 16.88 11.5198 16.88Z" fill="black"/>
<rect x="2" y="2" width="20" height="20" rx="3" fill="#3B82F6"/>
<circle cx="18.3535" cy="17.2727" r="1.45455" fill="black"/>
<path d="M5.9407 18.7273H8.9706H9.70682C9.80124 18.7273 9.87778 18.6507 9.87778 18.5563C9.87778 18.4618 9.80081 18.3864 9.70652 18.3796C9.21326 18.3438 9.00336 18.1217 8.9706 17.3925L8.96177 14.4478C9.01108 14.4568 9.05141 14.4611 9.09126 14.4732C9.28408 14.5319 9.38163 14.6383 9.48876 14.8312L10.9566 17.8595C10.9749 17.9145 10.9973 17.9956 11.0032 18.0748C11.0076 18.1348 10.9879 18.1943 10.9505 18.2415C10.8896 18.3185 10.8173 18.3589 10.6951 18.376C10.6019 18.389 10.5253 18.4622 10.5253 18.5563C10.5253 18.6507 10.6018 18.7273 10.6962 18.7273H14.6841C14.8028 18.7273 14.899 18.6311 14.899 18.5124C14.899 18.4339 14.855 18.3634 14.7894 18.3202C14.723 18.2763 14.657 18.2217 14.585 18.1382C14.5353 18.0775 14.491 17.996 14.4275 17.9029L12.3552 14.0745C11.8895 13.214 12.0277 12.1394 12.7835 11.518C13.0489 11.3056 13.2749 11.1612 13.509 11.0261C13.755 10.8842 14.0116 10.7579 14.3542 10.6439C14.4286 10.6191 14.4799 10.5503 14.4799 10.4719C14.4799 10.3736 14.4002 10.2938 14.3018 10.2938H10.3688C10.2692 10.2938 10.1885 10.3745 10.1885 10.4741C10.1885 10.5526 10.2415 10.6094 10.3193 10.6193C10.3932 10.6287 10.5047 10.6494 10.6743 10.7C11.0537 10.8317 11.3394 11.0202 11.4758 11.3698C11.5481 11.555 11.5375 11.7671 11.4821 11.958C11.4206 12.1696 11.3027 12.3411 11.0896 12.5877L9.84798 13.7217C9.46178 14.1204 8.96054 13.6765 8.95903 13.1214L8.94026 6.19178C8.94026 6.09219 8.84959 6.01728 8.75151 6.0346C8.23815 6.12527 7.84654 6.16371 7.20817 6.19178C6.58462 6.21919 6.08106 6.19874 5.96328 6.1931C5.94583 6.19227 5.92844 6.19179 5.91097 6.19181L5.16689 6.19265C5.07469 6.19275 5 6.26752 5 6.35972C5 6.45024 5.07273 6.5229 5.16253 6.53431C5.75982 6.61021 5.85634 7.02731 5.93718 7.82354L5.93428 17.2842C5.89104 18.0634 5.71763 18.329 5.1703 18.3778C5.07677 18.3861 5.00109 18.4615 5.00109 18.5554C5.00109 18.6503 5.07805 18.7273 5.173 18.7273H5.9407Z" fill="black"/>
</svg>
