<?xml version="1.0" standalone="no"?>
<!DOCTYPE svg PUBLIC "-//W3C//DTD SVG 20010904//EN"
 "http://www.w3.org/TR/2001/REC-SVG-20010904/DTD/svg10.dtd">
<svg version="1.0" xmlns="http://www.w3.org/2000/svg"
 width="700.000000pt" height="700.000000pt" viewBox="0 0 700.000000 700.000000"
 preserveAspectRatio="xMidYMid meet">
<metadata>
Created by potrace 1.14, written by Peter Selinger 2001-2017
</metadata>
<g transform="translate(0.000000,700.000000) scale(0.100000,-0.100000)"
fill="#000000" stroke="none">
<path d="M765 6994 c-11 -2 -45 -9 -75 -15 -232 -45 -439 -197 -577 -424 -26
-42 -55 -113 -81 -195 l-27 -85 -2 -2755 -1 -2755 24 -94 c81 -319 307 -550
629 -643 l80 -23 2765 0 2765 0 79 23 c238 69 413 203 543 417 26 42 55 113
81 195 l27 85 0 2745 c0 1510 -3 2768 -7 2795 -11 75 -22 112 -58 199 -100
240 -312 429 -561 501 -31 8 -67 19 -80 23 -25 7 -5488 13 -5524 6z m1955
-1543 c13 -1 15 -71 15 -576 0 -316 1 -575 2 -575 1 0 25 13 52 29 113 67 283
125 431 147 69 11 387 12 460 1 81 -11 107 -16 135 -27 14 -5 25 -8 25 -5 0
10 203 -66 280 -105 129 -65 234 -142 350 -259 249 -250 409 -599 457 -992 10
-82 10 -412 1 -504 -9 -81 -13 -105 -34 -200 -9 -38 -17 -79 -20 -89 -4 -23
-41 -139 -57 -181 -35 -89 -144 -292 -198 -369 -70 -98 -204 -238 -290 -304
-303 -230 -671 -316 -1103 -256 -84 12 -273 66 -324 94 -9 5 -46 23 -81 40
-35 17 -90 49 -122 71 -33 22 -59 38 -60 37 0 -2 -2 -41 -2 -88 l-2 -85 -347
-1 c-305 0 -347 2 -350 15 -3 13 -2 4146 1 4176 1 7 135 10 384 9 210 -1 389
-2 397 -3z"/>
<path d="M3268 3785 c-2 -1 -28 -5 -58 -8 -299 -32 -489 -264 -555 -677 -9
-53 -17 -199 -17 -290 1 -236 40 -427 122 -596 116 -239 310 -345 615 -338
116 3 125 4 214 30 95 27 171 74 251 154 110 111 174 231 219 411 28 116 36
191 36 359 0 163 -6 218 -35 339 -80 331 -286 551 -563 601 -53 10 -222 21
-229 15z"/>
</g>
</svg>
