<svg xmlns="http://www.w3.org/2000/svg" fill="none" viewBox="0 0 1631 472" width="128"><path fill="#00E9A3" d="M.42 412.98c78.1 78.1 204.74 78.1 282.84 0 78.1-78.11 78.1-204.74 0-282.85l-35.35 35.36c58.58 58.58 58.58 153.55 0 212.13-58.58 58.58-153.55 58.58-212.13 0L.42 412.98Z" /><path fill="#00E9A3" d="M71.13 342.26c39.06 39.06 102.37 39.06 141.42 0 39.06-39.05 39.06-102.36 0-141.42L177.2 236.2a50 50 0 0 1-70.71 70.7l-35.36 35.36Z"/><path fill="#00E9A3" d="M353.97 59.42c-78.1-78.1-204.73-78.1-282.84 0-78.1 78.1-78.1 204.74 0 282.84l35.36-35.35c-58.58-58.58-58.58-153.56 0-212.13 58.58-58.58 153.55-58.58 212.13 0l35.35-35.36Z"/><path fill="#00E9A3" d="M283.26 130.13c-39.05-39.05-102.37-39.05-141.42 0-39.05 39.06-39.05 102.37 0 141.42l35.36-35.35a50 50 0 0 1 70.7-70.71l35.36-35.36Z"/><path fill="#fff" fill-opacity=".8" d="M353.97 59.42c-78.1-78.1-204.73-78.1-282.84 0-78.1 78.1-78.1 204.74 0 282.84l35.36-35.35c-58.58-58.58-58.58-153.56 0-212.13 58.58-58.58 153.55-58.58 212.13 0l35.35-35.36Z"/><path fill="#fff" fill-opacity=".8" d="M283.26 130.13c-39.05-39.05-102.37-39.05-141.42 0-39.05 39.06-39.05 102.37 0 141.42l35.36-35.35a50 50 0 0 1 70.7-70.71l35.36-35.36Z"/><path fill="#fff" d="M588.11 264.18c0 24.93-17.79 37.29-34.83 37.29-18.54 0-30.9-13.1-30.9-33.88v-98.23h-38.56v104.2c0 39.3 22.37 61.57 54.54 61.57 24.5 0 41.76-12.89 49.22-31.21h1.7V333h37.4V169.36H588.1v94.82Zm72.23 130.18h38.56v-87.14h1.6c6.07 11.93 18.75 28.66 46.87 28.66 38.57 0 67.44-30.58 67.44-84.48 0-54.55-29.72-84.17-67.54-84.17-28.87 0-40.91 17.37-46.77 29.2h-2.24v-27.07h-37.92v225Zm37.81-143.18c0-31.75 13.64-52.3 38.46-52.3 25.68 0 38.89 21.83 38.89 52.3 0 30.68-13.42 53.06-38.89 53.06-24.6 0-38.46-21.31-38.46-53.06Zm273.02-38.56c-5.33-27.7-27.49-45.39-65.84-45.39-39.42 0-66.26 19.4-66.16 49.65-.1 23.86 14.6 39.63 46.02 46.13l27.92 5.86c15.02 3.3 22.05 9.37 22.05 18.64 0 11.19-12.15 19.6-30.47 19.6-17.69 0-29.19-7.67-32.5-22.37l-37.6 3.62c4.8 30.04 30.04 47.84 70.2 47.84 40.92 0 69.79-21.2 69.9-52.2-.11-23.34-15.14-37.61-46.03-44.32l-27.91-5.97c-16.62-3.73-23.23-9.48-23.12-18.96-.1-11.08 12.14-18.75 28.23-18.75 17.8 0 27.17 9.7 30.15 20.45l35.16-3.83Zm111.02-43.26h-32.27v-39.2h-38.57v39.2h-23.23v29.83h23.23v90.98c-.21 30.8 22.16 45.92 51.14 45.07 10.97-.32 18.53-2.45 22.69-3.84l-6.5-30.15a47.6 47.6 0 0 1-11.29 1.5c-9.7 0-17.47-3.42-17.47-18.97V199.2h32.27v-29.83Zm73.35 166.94c25.67 0 41.01-12.04 48.04-25.78h1.28V333h37.08V223.48c0-43.25-35.27-56.25-66.48-56.25-34.41 0-60.83 15.34-69.36 45.17l36.01 5.12c3.84-11.19 14.7-20.78 33.56-20.78 17.9 0 27.7 9.16 27.7 25.25v.64c0 11.08-11.61 11.61-40.48 14.7-31.75 3.41-62.11 12.9-62.11 49.75 0 32.18 23.54 49.22 54.76 49.22Zm10.01-28.34c-16.09 0-27.59-7.35-27.59-21.51 0-14.81 12.89-21 30.15-23.44 10.12-1.39 30.36-3.94 35.37-8v19.29c0 18.22-14.71 33.66-37.93 33.66Zm238.5-95.34c-5.33-27.7-27.49-45.39-65.84-45.39-39.42 0-66.27 19.4-66.16 49.65-.11 23.86 14.6 39.63 46.02 46.13l27.92 5.86c15.02 3.3 22.05 9.37 22.05 18.64 0 11.19-12.15 19.6-30.47 19.6-17.69 0-29.19-7.67-32.49-22.37l-37.61 3.62c4.79 30.04 30.04 47.84 70.21 47.84 40.9 0 69.78-21.2 69.88-52.2-.1-23.34-15.13-37.61-46.02-44.32l-27.91-5.97c-16.62-3.73-23.23-9.48-23.12-18.96-.11-11.08 12.14-18.75 28.23-18.75 17.79 0 27.17 9.7 30.15 20.45l35.16-3.83Zm67.88 24.5c0-23.65 14.7-37.29 35.37-37.29 20.24 0 32.17 12.9 32.17 34.95V333h38.57V228.81c0-39.52-22.38-61.58-56.36-61.58-25.14 0-41.12 11.4-48.69 29.94h-1.91v-82.35h-37.72V333h38.57v-95.88Z"/></svg>