<svg xmlns="http://www.w3.org/2000/svg" fill="none" viewBox="0 0 354 472">
  <path fill="#00E9A3" d="M.42 412.98c78.1 78.1 204.74 78.1 282.84 0 78.1-78.11 78.1-204.74 0-282.85l-35.35 35.36c58.58 58.58 58.58 153.55 0 212.13-58.58 58.58-153.55 58.58-212.13 0L.42 412.98Z"/>
  <path fill="#00E9A3" d="M71.13 342.26c39.06 39.06 102.37 39.06 141.42 0 39.06-39.05 39.06-102.36 0-141.42L177.2 236.2a50 50 0 0 1-70.71 70.7l-35.36 35.36Z"/>
  <path fill="#00E9A3" d="M353.97 59.42c-78.1-78.1-204.73-78.1-282.84 0-78.1 78.1-78.1 204.74 0 282.84l35.36-35.35c-58.58-58.58-58.58-153.56 0-212.13 58.58-58.58 153.55-58.58 212.13 0l35.35-35.36Z"/>
  <path fill="#00E9A3" d="M283.26 130.13c-39.05-39.05-102.37-39.05-141.42 0-39.05 39.06-39.05 102.37 0 141.42l35.36-35.35a50 50 0 0 1 70.7-70.71l35.36-35.36Z"/>
  <path fill="#fff" fill-opacity=".8" d="M353.97 59.42c-78.1-78.1-204.73-78.1-282.84 0-78.1 78.1-78.1 204.74 0 282.84l35.36-35.35c-58.58-58.58-58.58-153.56 0-212.13 58.58-58.58 153.55-58.58 212.13 0l35.35-35.36Z"/>
  <path fill="#fff" fill-opacity=".8" d="M283.26 130.13c-39.05-39.05-102.37-39.05-141.42 0-39.05 39.06-39.05 102.37 0 141.42l35.36-35.35a50 50 0 0 1 70.7-70.71l35.36-35.36Z"/>
</svg>